<svg width="30" height="30" viewBox="0 0 30 30" fill="none" xmlns="http://www.w3.org/2000/svg">
<path d="M24.0375 19.0749L20.8625 18.7124C20.1 18.6249 19.35 18.8874 18.8125 19.4249L16.5125 21.7249C12.975 19.9249 10.075 17.0374 8.27499 13.4874L10.5875 11.1749C11.125 10.6374 11.3875 9.88745 11.3 9.12495L10.9375 5.97495C10.7875 4.71245 9.72499 3.76245 8.44999 3.76245H6.28749C4.87499 3.76245 3.69999 4.93745 3.78749 6.34995C4.44999 17.0249 12.9875 25.5499 23.65 26.2124C25.0625 26.2999 26.2375 25.1249 26.2375 23.7124V21.5499C26.25 20.2874 25.3 19.2249 24.0375 19.0749Z" fill="white"/>
</svg>
