<svg width="32" height="29" viewBox="0 0 32 29" fill="none" xmlns="http://www.w3.org/2000/svg">
<path d="M12.928 12.847C13.008 12.3685 13.184 11.948 13.408 11.5855C13.632 11.223 13.952 10.9185 14.352 10.6865C14.736 10.469 15.216 10.3675 15.808 10.353C16.176 10.3675 16.512 10.4255 16.816 10.5415C17.136 10.672 17.424 10.846 17.648 11.0635C17.872 11.281 18.048 11.542 18.192 11.832C18.336 12.122 18.4 12.441 18.416 12.76H21.28C21.248 12.0785 21.104 11.455 20.832 10.8895C20.56 10.324 20.192 9.831 19.712 9.425C19.232 9.019 18.656 8.7 17.984 8.468C17.312 8.236 16.576 8.1345 15.76 8.1345C14.72 8.1345 13.808 8.294 13.04 8.6275C12.272 8.961 11.632 9.396 11.12 9.9615C10.608 10.527 10.224 11.1795 9.984 11.9335C9.744 12.6875 9.6 13.4705 9.6 14.3115V14.703C9.6 15.544 9.728 16.327 9.968 17.081C10.208 17.835 10.592 18.4875 11.104 19.0385C11.616 19.5895 12.256 20.039 13.024 20.358C13.792 20.677 14.704 20.851 15.744 20.851C16.496 20.851 17.2 20.735 17.856 20.5175C18.512 20.3 19.088 19.9955 19.584 19.604C20.08 19.2125 20.48 18.763 20.768 18.241C21.056 17.719 21.232 17.168 21.248 16.5735H18.384C18.368 16.878 18.288 17.1535 18.144 17.4145C18 17.6755 17.808 17.893 17.568 18.0815C17.328 18.27 17.056 18.415 16.736 18.5165C16.432 18.618 16.112 18.647 15.776 18.6615C15.2 18.647 14.72 18.5455 14.352 18.328C13.952 18.096 13.632 17.7915 13.408 17.429C13.184 17.0665 13.008 16.6315 12.928 16.153C12.848 15.6745 12.8 15.1815 12.8 14.703V14.3115C12.8 13.804 12.848 13.3255 12.928 12.847ZM16 0C7.168 0 0 6.496 0 14.5C0 22.504 7.168 29 16 29C24.832 29 32 22.504 32 14.5C32 6.496 24.832 0 16 0ZM16 26.1C8.944 26.1 3.2 20.8945 3.2 14.5C3.2 8.1055 8.944 2.9 16 2.9C23.056 2.9 28.8 8.1055 28.8 14.5C28.8 20.8945 23.056 26.1 16 26.1Z" fill="white"/>
</svg>
